<svg width="24" height="24" fill="none" xmlns="http://www.w3.org/2000/svg"><g clip-path="url(#clip0_218_273)"><path d="M21.301 6.521a7.788 7.788 0 01-2.233.612 3.898 3.898 0 001.71-2.152 7.763 7.763 0 01-2.47.944 3.89 3.89 0 00-6.626 3.547A11.043 11.043 0 013.666 5.41 3.89 3.89 0 004.87 10.6a3.88 3.88 0 01-1.761-.487v.05a3.89 3.89 0 003.12 3.814 3.917 3.917 0 01-1.757.066 3.891 3.891 0 003.633 2.7 7.803 7.803 0 01-4.83 1.666c-.31 0-.62-.018-.928-.055a11 11 0 005.96 1.747c7.154 0 11.065-5.925 11.065-11.064 0-.167-.004-.335-.012-.502a7.906 7.906 0 001.94-2.012l.001-.003z" fill="#fff"/></g><defs><clipPath id="clip0_218_273"><path fill="#fff" transform="translate(2.4 2.4)" d="M0 0h19.2v19.2H0z"/></clipPath></defs></svg>